<?xml version="1.0" encoding="utf-8"?>
<!-- Generator: Adobe Illustrator 24.0.2, SVG Export Plug-In . SVG Version: 6.00 Build 0)  -->
<svg version="1.1" id="Layer_1" xmlns="http://www.w3.org/2000/svg" xmlns:xlink="http://www.w3.org/1999/xlink" x="0px" y="0px"
	 viewBox="0 0 583.2 360.8" style="enable-background:new 0 0 583.2 360.8;" xml:space="preserve">
<style type="text/css">
	.st0{fill:#F0D080;}
</style>
<title>logo</title>
<path class="st0" d="M345.2,107.7c-1.7,1.1-3.3,2.3-4.9,3.5c-6.6,6.1-13.1,12.3-18.2,19.9c-3.7,5.5-6.7,11.6-8.9,17.9
	c-1.6,4.7-3,9.6-2.9,14.7c0,3.1,0,6.1,0,9.2c0,2.1,0.2,4.3,0.8,6.3c0.9,2.7,0.1,3.7-2.8,4c-1.9,0.2-3.9,0.5-5.8,0.5
	c-3.2,0.1-3.5-0.1-4.6-3.2c-2-5.7-2.6-11.8-1.8-17.8c1.3-10.3,5.9-19.2,11.9-27.5c3.2-4.5,6.7-8.7,10.5-12.6
	c5-5.1,10.3-9.9,15.9-14.3c12.8-9.7,25.5-19.5,38.2-29.3c2.4-1.9,4.7-3.9,7.1-5.8c5-4,9.9-8.1,14.8-12.2c1.3-1.1,2.5-2.3,3.7-3.4
	c0.7-0.6,1.1-1.5,1.1-2.5c0.4-3.5,0.2-4.1-3.1-5.5c-5.6-2.3-10.2-6.3-13.1-11.6c-4.8-8.6-4.5-17.2,0.4-25.6
	c3.6-6.2,9.4-9.7,16.1-11.6c3.8-1.1,7.9-0.8,11.9-0.3c0.7,0.1,1.5,0.4,1.6,1.3c0,1.1-0.9,1.3-1.7,1.3c-4,0.3-7.8,1.7-11,4.2
	c-7.1,5.4-9.9,14.8-7,23.2c2.5,7.3,7.6,11.8,15.1,13.8c4,1.1,8.3,0.9,12.2-0.5c0.8-0.3,2-1.1,2.5-0.1c0.6,1.2-0.7,1.7-1.5,2.3
	c-4,2.8-8.5,4.6-13.3,5.3c-1.2,0.1-2.9-0.1-3.2,1.6s-0.6,3.7,1,5.2c2.3,2.2,4.4,4.5,6.8,6.6c5.6,5.1,11.2,10.3,17.1,15.1
	c3.5,2.9,6.9,5.9,10.5,8.7c5.5,4.4,10.8,9.1,16.2,13.6c4,3.4,8.2,6.7,12.2,10.1c6,5.2,12.4,10.1,17.9,15.9
	c5.8,5.9,10.7,12.6,14.6,19.9c2.4,4.4,4.2,9.1,5.5,13.9c2,8.3,2.8,16.6,1.1,25.1c-0.4,2-0.8,4-1.4,5.9s-1.4,2.5-3.4,1.8
	c-3.7-1.3-7.3-2.6-11-3.7c-3.4-1-6.8-1.6-10.3-2.3c-3.8-0.8-7.6-1.6-11.5-2.1c-4.4-0.7-8.9-1-13.3-1.6c-5.3-0.8-10.7-1-16-1.8
	c-2.8-0.4-5.7-0.3-8.6-0.5c-10.2-0.7-20.4-1.3-30.5-1.8c-5.4-0.2-10.8-0.1-16.1,0c-5.1,0.1-10.2-0.8-15.3-0.4
	c-6.9,0.6-13.7,0.4-20.6,0.4c-6.3-0.1-12.6,0.6-18.9,1c-2.9,0.2-5.7,0.2-8.6,0.6s-3.3-0.1-3.9-2.9c-1.4-7.7-1.5-15.5-0.1-23.2
	c1.8-10.2,5.6-19.9,11.2-28.5c3.1-5,6.5-9.7,10.3-14.1C341.8,111.7,343.9,110.2,345.2,107.7z"/>
<path class="st0" d="M239.1,265.5c1.4-0.1,1.8-1,2.3-1.5c3.6-3.5,7-7.1,11.2-10c1.9-1.3,4-2.4,6.2-3c4.5-1.2,8.3,1,9.2,5.6
	c0.6,2.1,0.7,4.2,0.3,6.4c-0.3,0.6-0.1,1.4,0.5,1.7c2.2-2.3,4.5-4.5,7-6.5c2.6-2.1,5.1-4.5,8.2-6.2c3.5-1.9,7.7-1.5,10.3,1.2
	c1.8,2.1,2.7,4.7,2.6,7.4c-0.1,3.1-0.6,6.3-1.6,9.3c-1.5,5.1-3.2,10.2-4.7,15.4c-0.3,1.3-0.4,2.6-0.1,3.9c0.3,1.9,1.3,2.5,3.2,1.7
	c2.6-1.1,4.5-3.2,6.6-5.1c2.8-2.6,4.7-6,5.4-9.8c0.6-2.6,1.7-5.1,3.3-7.4c4.4-7.3,11-13,18.8-16.3c1.4-0.6,2.8-1,4.3-1.3
	c4.2-1.1,8.7,0.4,11.4,3.9c1.7,2,1.6,2,3.8,0.9s4.5-2.5,6.8-3.8c1-0.6,2-1,3-1.4c2-0.6,3.1,0.4,2.8,2.4c-0.1,0.5-0.2,0.9-0.3,1.4
	c-1.6,5.3-3.4,10.6-4.9,15.9c-1.4,4.9-3.3,9.7-3,14.9c0,0.6,0.1,1.3,0.1,2c0.1,1.6,1.4,2.8,3,2.7c0.4,0,0.9-0.1,1.3-0.4
	c1.2-0.7,2.4-1.4,3.5-2.2c1.7-1.6,3.4-3.2,5.1-4.7c0.9-0.9,1.5-2.1,1.7-3.4c2.1-9.8,7.8-17.3,15.4-23.5c3.4-2.8,7.6-4.5,12-5
	c2.8-0.5,5.6,0.1,8,1.7c1.5,1,2.1,0.8,2.6-1s1-3.8,1.4-5.7c1-5.9,2.8-11.5,4.1-17.3c0.5-2.1,1-4.1,1.5-6.2c0.2-1.4,1.3-2.5,2.8-2.7
	c3.6-0.5,7-1.7,10.7-1.6c2.5,0.1,3.1,0.9,2.5,3.3c-2,7.8-4,15.6-5.9,23.5c-1.7,7.3-3.5,14.6-5,21.9c-0.9,4.3-1.8,8.5-2.3,12.8
	c-0.3,2.2-0.6,4.4-0.7,6.6c-0.1,2.9,1.7,4.3,4.5,3.4c1-0.4,1.9-0.9,2.7-1.5c2.2-1.6,3.9-3.7,5.7-5.7c0.4-0.5,0.7-1.1,0.8-1.7
	c1.2-6.6,4.2-12.8,8.8-17.7c5.2-5.8,11.4-10.2,19.1-11.9c4-1,8.2,0.3,10.9,3.5c2.3,2.5,2.3,2.5,5.3,0.9c2-1.1,4-2.3,6.1-3.4
	c0.4-0.2,0.8-0.4,1.2-0.6c1.1-0.5,2.4-1.1,3.4-0.3c1.2,0.9,0.7,2.4,0.3,3.6c-1.6,5.3-3.4,10.6-4.9,15.9c-1.5,4.5-2.5,9.1-3.1,13.8
	c-0.1,0.8-0.1,1.7,0.1,2.5c0.7,3.3,2.9,4.3,5.6,2.3c1.6-1.2,3.2-2.5,4.7-3.9c3.2-2.8,4.6-6.2,5.2-10.4c0.7-5,2.7-9.6,4.6-14.3
	c0.7-1.7,1.4-3.4,2.1-5.1c0.4-1.1,1.3-1.9,2.4-2.1c3.8-0.9,7.6-1.6,11.5-2.1c1.6-0.3,2,0.5,1.4,2.3c-1.1,3.3-2.4,6.4-3.3,9.7
	c-0.3,0.9-0.5,1.9-0.7,2.8c1.2-0.9,2.8-2,4.2-3.3c3.6-3.3,6.9-6.7,11.1-9.3c1.9-1.1,4-2,6.2-2.5c4.5-1.2,9.3,3.2,9.2,8.3
	c-0.2,3-0.8,5.9-1.8,8.7c-1.7,5.5-3.7,10.9-5.8,16.2c-0.5,1.5-0.6,3.1-0.5,4.7c0.1,2.3,1.5,3.3,3.8,2.6c4.3-1.2,8.3-3.4,11.5-6.5
	c0.6-0.8,1.5-1.4,2.4-1.8c0.7-0.2,1.1,0.1,1,0.8c-0.1,0.6-0.3,1.1-0.5,1.6c-2.9,5.9-7.6,10.7-13.3,13.8c-1.5,0.8-3,1.5-4.5,2.2
	c-2.5,1.1-5.2,1.5-7.9,1.1c-4.4-0.3-8-3.7-8.6-8.1c-0.5-4.4,0.1-8.8,1.6-12.9c1.5-4.1,3-8.2,4.4-12.3c0.4-1.2,0.7-2.5,1-3.8
	c0.3-0.6,0.1-1.3-0.4-1.8c-0.7-0.6-1.4-0.2-2,0.2c-1.1,0.7-2.1,1.5-3.1,2.3c-3.4,3.4-6.6,7-9.5,10.9c-1.1,1.6-1.9,3.5-2.1,5.4
	c-0.8,4.6-1.1,9.2-1.5,13.8c-0.2,2.5-0.4,2.9-2.7,3.5c-2.8,0.8-5.6,1.4-8.4,2c-2,0.4-2.8-0.2-2.9-2.3c-0.1-1.6,0-3.2-0.1-4.7
	c0.1-1.6,0-3.1-0.4-4.6c-1.3,0.6-2.5,1.6-3.5,2.7c-2.7,2.6-5.6,4.9-8.7,6.9c-1.6,1.1-3.4,1.9-5.3,2.4c-2.8,0.9-6.9-0.9-8.4-3.5
	c-1.5-2.5-2.5-5.4-2.6-8.4c0-0.5-0.1-0.9-0.3-1.3c0-0.1-0.1-0.1-0.4-0.2c-1.3,0.9-2,2.3-3,3.5c-2.1,2.7-4.6,5.1-7.4,7.1
	c-2.3,1.6-4.9,2.7-7.7,3c-4.1,0.5-7.4-1.6-9.9-4.7c-1.3-1.5-2.2-3.2-2.9-5.1c-0.2-0.9-0.7-1.7-1.4-2.2c-2.1,1.8-4.3,3.7-6.5,5.5
	c-2.8,2.6-6.1,4.6-9.6,6c-3,1.1-5.3,0.2-7.5-1.5c-2-1.6-3.3-3.9-3.7-6.4c-0.3-1.5-0.6-3.1-0.9-4.9c-1.2,0.6-2.2,1.5-2.9,2.6
	c-1.9,2.4-4.1,4.5-6.5,6.4c-2.7,2.1-5.9,3.5-9.3,4.2c-3,0.6-5.7-0.9-7.8-2.9c-2.4-2.1-4.2-4.8-5.2-7.8c-0.5-1.6-1-1.6-2.4-0.6
	c-2,1.4-3.6,3.2-5.4,4.8c-3.1,2.7-6.4,5.1-10.4,6.2c-3.3,1-6.9-0.3-8.7-3.2c-1.5-2.5-2.5-5.2-2.8-8.1c0-0.7-0.2-1.4-0.5-2
	c-2,2.1-3.6,4.3-5.5,6.3c-3,3.4-6.9,5.9-11.3,7.2c-1.6,0.5-3.3,0.4-4.9-0.1c-4.4-1.6-7.2-4.8-8.9-9c-0.2-0.5-0.4-1.1-0.6-1.6
	c-0.6-1.3-1-1.4-2-0.5c-1.8,1.6-3.6,3.2-5.5,4.7c-3.3,2.8-7.2,5-11.3,6.4c-4.2,1.4-9.7-1.6-11-5.4c-0.8-2-1.1-4.1-0.9-6.3
	c0.5-4.3,1.4-8.6,2.7-12.8c1.2-3.4,2.2-6.9,3-10.4c0.2-0.6,0.2-1.3,0.2-1.9c-0.1-1.3-0.9-1.8-2.1-1.3c-1.1,0.4-2.2,1-3.1,1.8
	c-2.7,2.5-5.1,5.1-7.5,7.9c-1,1.2-1.7,2.7-2.1,4.2c-1.2,4.9-2.4,9.9-3.5,14.9c-0.4,1.7-1,3.4-1.5,5c-0.4,1.3-1.5,2.2-2.8,2.3
	c-3.4,0.6-6.8,1.2-10.1,1.8c-2.3,0.4-2.9-0.3-2.4-2.6c0.9-4.3,2-8.5,2.9-12.7s2.1-8.6,2.9-13c0.6-2.7,1-5.5,1.2-8.2
	c0.1-1.6-0.5-2-2-1.4c-1,0.4-1.8,0.9-2.6,1.6c-3.2,3.1-6.6,6-9.2,9.7c-1.3,2-2.2,4.3-2.6,6.6c-1.1,4.7-1,9.4-1.1,14.1
	c0.2,1.6-1,3.2-2.6,3.5c-2.9,0.7-5.7,1.5-8.6,2.1c-2.3,0.5-3.5-0.4-3.7-2.8c-0.2-2.2-0.1-4.5-0.1-6.7c0-0.5-0.1-0.9-0.1-1.3
	c-0.9-0.5-1.3,0.3-1.7,0.6c-2.6,2.2-5.2,4.5-7.8,6.7c-2,1.6-4.3,2.9-6.8,3.8c-3.1,1.2-5.6,0.4-8-1.6c-2-1.7-3.3-4.1-3.5-6.7
	c-0.2-1.6-0.6-3.3-0.9-4.9c-0.9-0.2-1.1,0.6-1.5,1.1c-2.5,3.2-5.4,6.1-8.5,8.8c-2.5,1.9-5.5,3.2-8.6,3.7c-2.9,0.5-5.9-0.5-7.9-2.7
	c-5.2-5.1-7-11.5-5.8-18.6c1.2-6.9,4.4-13.3,9.1-18.5c3.7-4.1,8.1-7.4,13-9.8c3.4-1.7,7.1-2.7,11-1.8c2.6,0.5,4.8,2,6.3,4.2
	c1.1,1.6,1.5,1.7,3.2,0.8c2.5-1.3,4.8-2.8,7.3-4.1c1.3-0.9,2.9-1.3,4.5-1.1c1.1,0.2,1.6,0.8,1.3,2c-1.5,5-3.2,9.9-4.6,14.9
	c-1.7,6.2-4.3,12.3-4,18.9c0.1,2.1,0.6,3,2.2,3.4c0.7,0.1,1.5,0,2.2-0.3c1.6-0.6,3-1.5,4.2-2.7c1.2-1.1,2.4-2.4,3.6-3.5
	c1.8-1.7,2.8-3.9,3-6.4c0.6-4,1.7-8,3.3-11.7c1.3-3.3,2.5-6.6,4-9.8c0.6-1.5,2-2.5,3.6-2.7c3.1-0.2,6-1.3,9-1.7
	c2.5-0.3,3.1,0.3,2.3,2.6C241.7,257.5,240.4,261.3,239.1,265.5z M462.5,263.5c0-1.4-0.3-2.8-0.9-4.1c-0.9-2.2-3.1-3.5-5.1-2.8
	c-2.1,0.5-3.9,1.7-5.3,3.4c-5.2,6.7-8.3,14.8-9,23.2c-0.3,4.5,3.1,7.4,7.3,6.2c1.9-0.5,3.3-2,4.5-3.6c1.9-2.5,3.5-5.3,4.8-8.1
	C461,273.2,461.7,268.3,462.5,263.5L462.5,263.5z M174.4,282.1c0,0.9-0.1,1.9,0,2.8c0.2,3.2,2.1,4.9,5.3,4.7s5.1-2,6.7-4.4
	c2.5-3.8,4.5-7.9,6-12.2c1.4-3.8,1.9-7.9,1.5-12c-0.4-3.7-2.6-4.9-5.8-4.2c-1.5,0.3-2.8,1.1-3.8,2.2
	C178,265.4,175,273.2,174.4,282.1z M339.9,263.6c0.3-2.3-0.5-4.5-2.2-6.1c-0.9-1.1-2.5-1.5-3.8-0.9c-2.6,1-4.9,2.7-6.5,5
	c-2.9,4.4-5.1,9.2-6.5,14.4c-1,3.3-1.2,6.8-0.5,10.2c0.6,2.9,4.3,4.6,6.7,3.2c2-1,3.7-2.5,5-4.3c1-1.6,2-3.2,2.8-4.8
	C337.7,275.1,339.4,269.4,339.9,263.6L339.9,263.6z M381.7,282.2c0,0.9,0,1.9,0,2.8c0,2.6,2.1,4.8,4.7,4.8c0.5,0,1-0.1,1.4-0.2
	c2.3-0.6,4.3-2,5.5-4c4.1-6.1,6.8-13,7.7-20.3c0.3-1.8,0.1-3.7-0.6-5.5c-0.9-2.7-3.8-4.1-6.5-3.2c-0.6,0.2-1.2,0.5-1.6,0.9
	c-1.2,0.9-2.2,2-3,3.3c-1.8,2.6-3.2,5.4-4.4,8.3C383.2,273.3,381.7,277.5,381.7,282.2z"/>
<path class="st0" d="M309.8,188.7c2.7,0.2,4.9-0.6,7.1-0.7c5.4-0.4,10.7-1,16.1-1.4c3.6-0.3,7.2-0.4,10.8-0.5
	c6.8-0.2,13.7-1.3,20.6-0.4c1.4,0.2,3-0.3,4.4-0.3c8,0.1,16-0.4,23.9,0.3c1.8,0.2,3.5-0.4,5.3-0.3c6.1,0.2,12.2,0.3,18.3,0.9
	c4.1,0.4,8.1,0,12.2,0.6c5,0.7,10,0.6,15,1.3c4,0.6,8.1,0.9,12.1,1.5c4.3,0.6,8.6,1.2,12.9,1.7c8.1,1,16.1,2.6,24.1,4.3
	c6,1.3,12.1,2.7,18,4.5c4.2,1.3,8.3,2.5,12.5,3.8c8.6,2.8,17.1,6.2,25.2,10.2c10.9,5.4,21,12,28.8,21.5c2.7,3.4,4.6,7.4,5.5,11.7
	c2,9-1.5,16.3-6.5,23.3c-4.7,6.5-10.8,11.5-17.2,16.1c-3.4,2.5-7.2,4.5-10.9,6.8c-0.3,0.2-0.6,0.4-1,0.5c-0.4,0.2-0.9-0.1-1.1-0.5
	c-0.1-0.2-0.1-0.5,0.1-0.7c0.4-0.7,1-1.4,1.6-1.9c3-3.2,5.6-6.7,7.8-10.5c2.4-3.9,4-8.2,4.8-12.6c1-5.3,0.2-10.7-2.2-15.5
	c-2.7-5.3-6.5-10-11.3-13.6c-6.8-5.3-14.3-9.6-22.3-12.9c-7.8-3.2-15.7-6.1-23.8-8.5c-6.8-2.1-13.8-3.6-20.7-5.4
	c-4.3-1.1-8.8-1.5-13-2.6c-3.3-0.8-6.6-1-9.8-1.8c-2.6-0.6-5.3-0.8-8-1.2c-5.6-0.8-11.2-1.8-16.8-2.2c-4.6-0.4-9.1-1.6-13.8-1.3
	c-1.9,0-3.7-0.1-5.5-0.5c-7-0.9-14-0.9-21.1-1.6c-2.1-0.2-4.3,0.1-6.4,0c-9.9-0.6-19.9-0.7-29.8-0.4c-6.5,0.2-13,0.2-19.5,0.5
	c-2.4,0.1-4.8,0.5-7.2,0.6c-5.9,0.4-11.8,0.9-17.7,1.3c-5.2,0.3-10.3,1.4-15.5,1.5c-2.8,0.1-5.7,0.8-8.5,1.1c-9.4,1-18.7,2.6-28,4.3
	c-5.7,1-11.5,1.8-17.2,3.2c-7.6,2-15.4,3.5-22.9,5.6c-2.7,0.7-5.3,1.6-8,2.4c-0.9,0.3-2.2,1-2.7-0.3c-0.4-1,0.9-1.4,1.7-1.9
	c4.7-2.7,9.3-5.5,14-8c5.1-2.5,10.3-4.7,15.6-6.6c6-2.3,12-4.3,18.2-6c6.7-2,13.6-3.6,20.5-4.9c5.4-0.9,10.7-2,16.1-2.7
	c4.4-0.5,8.8-1,13.2-1.9C308.4,188.8,309.1,188.8,309.8,188.7z"/>
<path class="st0" d="M44.5,256c-1.1,0.5-2.3,0.7-3.5,0.5c-8.2-0.7-15.7-3.1-21.3-9.4c-4.2-4.5-6.9-10.3-7.5-16.4
	c-0.3-2.3-0.9-4.6-1-6.9c-0.6-13.6,4.2-26.9,13.4-37c7.2-8,16.3-12.5,27.1-13.9c8.2-1.2,16.6,0.4,23.9,4.4
	c7.2,3.9,12.1,9.9,15.4,17.4c1.3,3.3,2.3,6.7,3,10.1c0.4,2.1,0.7,4.2,0.8,6.3c0,0.5,0.2,1.1,0.5,1.5c1-0.5,1.8-1.2,2.3-2.1
	c2.2-3.4,5.1-6.1,8-8.9c4.3-4,9.1-7.4,14.3-10c4.4-2.2,9.4-3.2,14.3-2.8c2.5,0.3,4.9,1.3,6.8,3c4.2,3.3,6.4,7.8,8,12.8
	c2.2,7.3,1.9,14.7,1,22.1c-1.1,8.6-3.7,16.9-7.9,24.5c-3.5,6.7-8.3,12.6-14.1,17.4c-1.8,1.5-1.9,3-0.3,4.8c0.9,0.9,1.9,1.8,2.9,2.6
	c7.2,6.2,14.5,12.2,21.5,18.5s14.2,11.9,21,18.2c1.6,1.4,1.5,2.1-0.3,3c-3.6,1.7-7.2,3.4-10.9,5c-2.1,1-2.6,0.6-4.3-1.1
	c-4.9-5-9.3-10.4-14-15.5s-9.1-10.3-13.7-15.4c-3.8-4.3-7.7-8.6-11.5-12.9c-1.1-1.2-2.3-1.2-3.8-0.8c-4.7,1-9.4,2-14.3,1.3
	c-2.4-0.4-4.8-0.9-6.4-3c-2.5-3.4-1.2-8,2.9-9.9c4.3-1.9,9-2.6,13.6-2c1.8,0.2,3.7,0.5,5.5,1c1.8,0.5,3.8,0,5.1-1.4
	c4.7-4.4,8.3-9.8,10.4-15.9c2.6-7.2,3.7-14.8,3.3-22.4c-0.3-6.1-1.6-11.9-4.9-17.2c-2.9-4.5-6.8-5.4-11.9-4.1
	c-4.4,1.1-7.5,4.3-10.6,7.4c-4.1,4.2-7.3,9-10.6,13.9c-1.6,2.6-2.8,5.4-3.6,8.4c-2,6.4-4.1,12.7-6.1,19c-2.1,6.6-4.1,13.3-6.3,19.8
	c-1.3,3.9-2.4,7.8-3.8,11.6c-1.5,4-2.6,8.1-3.8,12.2c-0.8,2.6-1.7,5.3-2.6,7.9c-0.9,2.5-2.4,4.8-4.4,6.7c-2.3,2.3-4.9,2.3-7.4,0.2
	c-4.8-4-5.8-9.3-5.1-15.1c0.2-0.9,0.5-1.8,1-2.6c5.8-11.3,10.9-23,15.2-35c2.5-6.9,4.6-14,6.3-21.2c1.7-7.3,3-14.5,2.9-22
	c0.1-6.7-0.9-13.4-2.7-19.8c-1.6-5.2-3.9-10.2-8.4-13.8c-2.7-2.2-6.2-3.3-9.8-3.1c-4.5,0.3-8.7,2.1-12.2,4.9
	c-6.6,5.2-10.8,12.1-14.4,19.5c-2,4.2-4,8.4-4.8,13c-0.9,4.5-1.2,9-0.9,13.6c0.2,3.3,0.7,6.6,1.5,9.9c1.9,6.1,4.7,11.5,9.9,15.4
	c1.5,1.1,3.5,1.2,5.1,2.1C43.1,254.8,44.2,254.7,44.5,256z M104.8,266.7c-1.5-0.1-3-0.1-4.4,0.2c-1,0.3-2,0.7-2.1,1.9s1,1.7,1.9,2.1
	c0.3,0.2,0.6,0.3,1,0.3c2.2,0,4.4,0,6.7-0.1c0.9-0.1,1.8-0.5,2.5-1.1c1.1-0.8,1.1-1.6,0.1-2.4c-0.6-0.6-1.4-0.9-2.3-0.9
	C107,266.7,105.9,266.7,104.8,266.7z"/>
<path class="st0" d="M191.1,106.5c2.5-1.8,4.7-4.1,6.5-6.6c1.4-1.8,2.1-4.1,4.2-5.5c0.3-0.2,0.4-0.6,0.4-1c0.8-3.4,3.3-5.6,5.8-7.6
	c3.7-2.9,6.4-2.7,10.4,0.2c1-0.3,1.3-1.4,2.1-2.1c1.6-1.3,2.6-1.3,4.2,0c2.3,2,2.7,4.1,0.9,6.9c-1.5,2.4-2.8,5-3.9,7.7
	c-0.8,2-1.3,4.2-1.4,6.4c1.5,0.3,2.1-0.6,2.9-1.3c1.5-1.4,2.8-2.9,4-4.6c1.1-1.5,2.3-2.9,3.5-4.2c1.1-1.3,0.5-3.5,1.3-5.3
	c2.1-4.8,4.5-9.4,7-13.9c1.9-3.4,3.8-6.8,5.8-10.1c1.3-2.2,3.2-3,4.8-2.2c2.3,1.2,3.2,4,2.2,6.4c-1.3,2.4-2.6,4.7-4.1,7
	c-2.2,3.3-3.9,6.9-6,10.3c-0.3,0.3-0.3,0.8,0,1.1c1.4-1,2.9-2.2,4.4-3.1c4.6-3,9.3,0.2,9.7,4.9c0.3,2.7-0.6,5.1-1.4,7.6
	c-0.1,0.4-0.5,0.8-0.2,1.5c2.1-1.5,3.9-3.3,5.4-5.5c1.8-2.9,4.1-5.5,6.8-7.7c1.6-1.3,3.6-2.1,5.6-2c1.5,0,3,0.6,4,1.7
	c0.6,0.7,1.2,0.8,1.7-0.1c0.1-0.2,0.2-0.3,0.3-0.5c1.6-2,2.9-2.4,4.5-1.6c2,1.1,3,3.5,2.4,5.7c-0.4,1-1,2-1.5,3
	c-1.3,2.8-2.6,5.5-3.9,8.3c-0.1,0.2-0.1,0.4-0.1,0.5c0,1.3-0.9,2.9,0.4,3.6s2.2-1,3-1.9c2.4-3.1,4.8-6.1,7-9.4
	c0.9-1.7,1.7-3.5,2.2-5.4c0.5-1.3,1.2-2.5,2.2-3.5c1.5-1.6,2.7-1.6,4.4-0.3c1,0.9,1.8,2,2.3,3.3c1.3-1,2.5-1.8,3.6-2.7
	c1.6-1.2,3.6-2,5.7-2.1c2.3-0.2,4.4,1.5,4.6,3.9c0,0.5,0,1-0.1,1.5c-1.2,4.5-3.6,8.3-5.7,12.3c-0.9,1.7-2.1,3.3-2,5.6
	c1.5-0.3,2.7-1.2,3.6-2.4c1.8-2.1,3.4-4.4,4.8-6.8c0.7-1.3,1.6-2.5,2.5-3.7c0.3-0.4,0.8-0.6,1.2-0.4c0.7,0.3,0.6,0.9,0.5,1.4
	c-0.2,0.5-0.4,1.1-0.6,1.5c-2.2,4-4.9,7.7-8,11c-1.2,1.2-2.6,2.2-4.1,2.9c-1.6,0.9-3.6,0.7-5-0.4c-1.5-1.3-1.9-2.9-1.4-5
	c0.9-3.7,2.8-6.8,4.4-10.2c0.8-1.8,1.6-3.5,2.4-5.3c0.4-1-0.1-1.4-1-1.2c-1.3,0.4-2.4,1.2-3.1,2.2c-3.6,4.3-6.4,9.4-8,14.8
	c-0.3,1-0.5,2-0.8,3c-0.6,1.6-1.5,1.9-3,1c-2.2-1.2-3.5-3.5-3.5-5.9c0-0.3,0.1-0.6,0.1-0.8c-0.1-0.2-0.1-0.5-0.3-0.7
	c-1.2,1.4-2,3-3.3,4.2c-0.9,0.8-1.7,1.7-2.7,2.4c-3.4,2.5-5.8,1.8-8.2-2.1c-0.4-0.7-0.4-1.6-1.3-2.3c-0.8,0.9-1.6,1.7-2.3,2.6
	c-1.2,1.4-2.7,2.6-4.4,3.3c-2.7,1.3-6,0.1-7.2-2.6c-0.2-0.5-0.4-1.1-0.5-1.6c-0.1-1.5-0.3-3-0.6-4.5c-2.6,2.9-6.3,4.1-9.1,6.4
	c-1.4,1.1-2.9,2-4.6,2.5c-3.8,1.2-6.2-0.1-7.3-3.9c0,0.1-0.1,0.1-0.1,0.2c-0.3,1.3-0.2,2.9-1.8,3.2s-2.2-1.1-3.2-1.9
	c-1.4-1.3-1.4-3.1-1.9-5c-1,0.4-1.9,1.2-2.4,2.2c-1,1.6-2.4,2.9-4,3.8c-2.3,1.6-5.4,1.1-7.1-1.1c-0.1-0.2-0.2-0.3-0.3-0.5
	c-0.5-0.9-0.9-1.8-1.5-2.9c-1,1-1.9,2-2.9,2.9c-0.8,0.8-1.7,1.5-2.6,2.1c-4.1,2.8-8.2,1.1-9.3-3.8c-0.1-0.4-0.1-0.7-0.2-1.1
	c-1,0-1.2,0.8-1.7,1.3c-1.3,1.6-2.8,3-4.5,4.1c-0.8,0.6-1.8,0.9-2.8,1.1c-2.7,0.4-4.5-1-4.8-3.7s0.9-5.3,2.1-7.7
	c1.5-2.9,2.9-5.8,4.2-8.8c0.3-0.5,0.4-1,0.6-1.6c0.1-0.9-0.4-1.2-1.2-0.9c-1.7,0.8-3.1,2.1-4.2,3.6c-2.3,2.8-4.1,6-5.4,9.4
	c-0.8,2.1-1.9,4-2.2,6.3c0,1-0.7,1.8-1.6,2.1c-1,0.4-1.5-0.4-2.1-1c-1.6-1.6-2.7-3.3-2.4-5.7c0-0.6-0.1-1.1-0.2-1.7
	c-1.5,1.5-2.9,3.3-4,5.2c-1.6,2.4-3.7,4.4-6.2,5.9c-3.2,1.8-6.7,0.7-8-2.3c-0.5-1.3-0.7-2.7-0.3-4.1c0.5-2.6,1.4-5.2,2.6-7.6
	c0.4-0.7,1.3-1.6,0.1-2.4s-2-0.4-3,1c-1.4,2.1-2.9,4.1-4.2,6.2c-1.4,2.2-3.3,4-5.4,5.5c-3.1,2.2-6.4,1.3-8-2.1
	c-0.3-0.7-0.5-1.4-0.9-2.5c-1.2,1.2-2.2,2.2-3.2,3.3c-1,1.1-2.3,2-3.7,2.6c-3.8,1.6-7.1-0.2-7.8-4.3l-0.3-1.7c-1,0.9-1.9,1.9-2.7,3
	c-2.9,4.4-6.4,8.4-10.5,11.8c-0.8,0.6-1.7,1.2-2.5,1.8c-4.1,2.9-7.2,0.3-8.7-3.4c-1-2.9-1.2-6-0.6-9c0.8-5.1,2.1-10.1,3.9-15
	c1-2.5,2.2-4.9,3.6-7.2c0.2-0.4,0.7-0.7,0.4-1.3c-1.9,1.2-2.9,3.1-4,4.9c-3,4.7-6.5,9.1-8.9,14.1c-2.2,4.6-4.8,9-5.9,14
	c-0.4,1.8-0.9,1.9-2.5,1.2c-3.9-1.7-5.5-4.8-5.4-8.9c0.1-4.6,1.6-8.9,3.5-13c3.7-8.1,8.8-15.5,13.3-23.1c1-1.6,2-3.3,2.9-5.1
	c-2.1,1.3-3.8,3-5.3,4.9c-6.7,8.8-11.7,18.6-17.2,28.2c-3.1,5.5-6,11.1-10.2,15.9c-2.9,3.4-6.1,6.4-10.7,7.5c-3,0.7-5.5-0.4-7.8-1.9
	c-3.5-2.2-5.8-5.4-8-8.8c-3.3-5.1-5.1-10.7-4.5-16.9c0.4-4.6,5.2-8.4,9.7-7.3c1.6,0.4,3.3,0.2,4.9,0.8c0.7,0.3,1.4,0.6,2,0.9
	c0.8,0.2,1.2,1,1,1.8c-0.2,0.7-0.9,1.2-1.6,1c0,0-0.1,0-0.1,0c-3.3-0.6-5.1,1.8-5.9,4.1c-2.4,6.2-2.2,13.2,0.7,19.2
	c0.6,1.1,1.5,2.1,2.6,2.8c1.3,1,3,1.1,4.4,0.4c3.4-1.3,6.3-3.5,8.6-6.4c4.9-6.2,9.3-12.7,13.3-19.6c3.9-6.9,8.3-13.4,12.7-20
	c1.1-1.6,3-2.5,4-4.2c0.2-0.4,0.8-0.6,0.5-1.3c-2.3,0.9-4.5,2.1-6.6,3.4c-6.6,3.8-13.2,7.7-20.4,10c-3.7,1.1-7.6,1.2-11.3,0.3
	c-3.5-0.7-5.6-3.5-6.9-6.7c-0.4-1.1-1-2.2-1.7-3.2c-1.1-1.1-1.1-2.9,0-4.1c0.8-1.2,1.9-2.3,3.2-3.1c0.5-0.3,1.2-0.9,1.8-0.4
	s0.2,1.2-0.1,1.8c-0.4,0.9-0.9,1.8-1.2,2.8c-0.8,2.1-0.4,2.8,1.8,3.4c4.1,1.1,8.4,1.3,12.6,0.5c7.3-1.5,14.4-3.5,21.3-6.2
	c3.8-1.4,7.6-2.9,11.5-4c3.1-0.9,6.2-0.7,9.4-0.5c1.4,0.1,2,0.9,2,2.4c0,2.4-1,4.3-1.9,6.3c-3,6.7-6.9,12.9-10.5,19.3
	c-0.6,0.9-1,1.8-1.2,2.8c0.8-0.2,1-0.9,1.3-1.4c4.9-8.5,11.6-15.6,18.9-22.1c3.9-3.4,8.4-5.9,13.4-7.2c0.5-0.1,1.1-0.2,1.6-0.1
	c0.5,0.1,1.2,0.2,1.4,0.8s-0.4,1-0.9,1.3c-0.7,0.5-1.5,0.8-2.3,1c-2,0.3-3.3,1.5-4.7,2.8c-3.8,3.6-6.8,7.9-9.1,12.5
	c-2.1,4.5-3.8,9.2-5,14.1c-1.2,4.3-0.9,8.6-1,13c0,0.6,0,1.1,0,1.7c0.1,1,0,2.1,1.2,2.6c1,0.3,2.1,0,2.8-0.8c2.9-2.7,5.6-5.7,8-8.9
	c2.2-3,4.2-6.1,6.6-8.9c1.4-1.7,2.2-4,4-5.6s3-3.2,5.3-4c2.6-0.9,4.9-0.8,7,1.2c0.2,0.3,0.6,0.5,1,0.5c0.7-0.2,0.8-0.9,1.2-1.4
	c1-1.1,2-2,3.6-1.6c1.6,0.6,2.7,2,2.9,3.7c0.1,1.8-0.3,3.5-1.3,5c-1.5,2.5-2.8,5.2-3.8,8c-0.4,1.3-0.6,2.7-0.7,4.1
	c-0.1,0.4,0,0.7,0.3,1c0.4,0.2,1,0.2,1.3-0.2c0.6-0.5,1.2-1.1,1.8-1.7c2.2-2.6,4.2-5.4,6.1-8.3c0.9-1,1-2.5,0.1-3.5
	c-3.2-4.6-1.1-12.4,2.4-15.9c1.4-1.5,3.7-2,5.6-1.1c1.9,1,3,3.2,2.5,5.4c-0.3,1.4-0.8,2.7-1.4,3.9c-1.2,2.2-2.3,4.4-3.4,6.7
	c-0.5,1,0,1.6,1.1,1.4c0.8-0.2,1.6-0.6,2.1-1.3c1-1,1.9-2.1,2.9-3.1c1.8-1.8,3.6-2.1,5.5-1s2,1.9,0.9,3.6c-1.8,2.8-3.5,5.7-5,8.7
	c-1.1,2.3-2.2,4.7-3.2,7.1c-0.2,0.4-0.3,0.9-0.2,1.3c0.1,0.8,0.6,1.1,1.3,0.9c0.8-0.3,1.5-0.8,2-1.5c1.2-1.4,2.4-2.8,3.5-4.3
	c2.2-3.1,4.3-6.3,6.3-9.5c0.4-0.9,0.8-1.9,1.1-2.8c3.8-8.3,8.1-16.3,13-24l0.1-0.2c1.4-2.1,2.6-2.7,4-2.2c1.9,0.9,3.1,2.8,3,4.9
	c-0.3,1.8-1,3.4-2.1,4.8c-2.3,3.3-4.1,6.8-6.1,10.3c-0.7,1.3-1.3,2.6-1.8,4c1.9-1.9,4.2-3.3,6.7-4.3c2.2-0.9,4.4-0.7,5.9,1.1
	s1.3,3.8,0.4,5.8c-1.8,3.9-3.6,7.7-5.7,11.5C192.1,102.8,191.4,104.6,191.1,106.5z M247.7,91.5c0.1-0.8,0.1-1.7-0.8-2.2
	c-0.7-0.3-1.5-0.2-2.1,0.3c-0.7,0.4-1.3,1-1.9,1.6c-2,2.2-3.6,4.7-4.9,7.4c-1.6,3.8-1.6,3.7,2.4,4.9c1.1,0.4,2.3,0.1,2.9-0.9
	C246.1,99.5,247.6,95.6,247.7,91.5L247.7,91.5z M264.7,102.9c0,0.5,0,0.8,0,1.1c0.1,1.4,0.7,1.6,1.8,0.9c0.4-0.3,0.7-0.5,1.1-0.9
	c2.7-2.6,4.8-5.6,6.3-9c0.8-1.4,1.3-3.1,1.3-4.8c0-0.6,0-1.1-0.6-1.4s-1.1,0.1-1.5,0.4s-0.7,0.6-1,0.9c-2.2,1.8-3.3,4.4-5,6.6
	C265.8,98.5,264.9,100.6,264.7,102.9L264.7,102.9z M216.7,90.6c0-0.7,0.1-1.3-0.5-1.6c-0.7-0.4-1.2,0.2-1.7,0.6
	c-3.5,2.9-6.2,6.7-7.7,11c-0.4,1.1-0.7,2.3-0.8,3.5c-0.1,1,0.4,1.4,1.3,0.9c0.6-0.3,1.1-0.6,1.6-1.1c3.4-3.4,6.3-7.3,7.5-12.1
	C216.6,91.4,216.6,91,216.7,90.6L216.7,90.6z M127.6,103.3c0.1,0.4-0.3,1.3,0.6,1.6s1.6-0.3,2.1-0.9c2.7-3.1,5.3-6.2,6.8-10.1
	c0.6-1.1,0.9-2.2,1-3.4c0-0.6,0.1-1.4-0.6-1.7s-1.3,0.2-1.7,0.6c-2.9,2.6-5.2,5.8-6.9,9.3C128.1,100.1,127.6,101.7,127.6,103.3
	L127.6,103.3z M156.1,87c1-2,2-3.9,2.9-5.9c0.1-0.4,0.2-0.9,0.2-1.4c0-0.4-0.1-0.8-0.5-0.9c-0.4-0.1-0.7,0.2-0.9,0.5
	C156.8,81.8,155.6,84.1,156.1,87L156.1,87z"/>
<path class="st0" d="M176.9,333.3c4.9-1.7,9.4-3.7,13.9-5.7c1.1-0.5,2.3-0.4,3.3,0.2c6.1,3.6,12.6,6.2,19.5,8c1.9,0.5,3.8,1,5.7,1.5
	c7.2,1.8,14.6,2.7,22,2.8c5.7,0.3,11.5-0.4,17-2c5.7-1.8,10.3-5,12.1-11.2c1-3.5-0.1-7.2-2.9-9.6c-3-2.5-6.5-4.2-10.3-5.2
	c-2.9-0.8-5.9-1.5-8.9-1.9c-3.5-0.4-7-0.6-10.5-0.6c-5.8,0-11.6,0.8-17.3,2.3c-4.6,1.2-9,2.7-13.5,4.2c-6.9,2.4-13.9,4.8-20.7,7.3
	c-5.3,2-10.5,4.3-15.8,6.2c-8.5,3.1-16.9,6.6-25.5,9.6c-6.8,2.4-13.7,4.6-20.5,6.9c-4.2,1.5-8.5,2.5-12.8,3.8
	c-4.9,1.5-10,2.7-15,3.9c-9.3,2.3-18.6,4-28.1,5.3c-6.7,0.9-13.5,1.4-20.3,1.4c-7.4,0.1-14.8-0.8-22-2.8
	c-9.2-2.7-17.1-7.6-22.4-15.9c-1.4-2.5-2.6-5.1-3.6-7.8C0,333.8,0,333.3,0,332.9c0-0.5,0.3-0.9,0.8-1c0.4-0.1,0.7,0.2,0.9,0.5
	c0.4,0.5,0.8,1,1.2,1.6c2.7,5,7.2,8.1,12.1,10.7c6.5,3.4,13.5,4.9,20.8,5.7c4.2,0.5,8.3,0.5,12.5,0.8c3.5,0.1,7-0.1,10.5-0.5
	c4.9-0.4,9.8-0.6,14.6-1.4c5.2-0.8,10.4-1.4,15.6-2.7c2.9-0.7,5.8-1.1,8.7-1.7c3.7-0.8,7.4-1.7,11-2.7c7.6-2,15.2-4,22.7-6.2
	c5.9-1.7,11.8-3.7,17.6-5.8c11.6-4.2,23.2-8.4,34.6-13c6.7-2.7,13.5-5.1,20.5-7.1c6.7-2,13.5-3.5,20.4-4.4c4-0.4,7.9-1.2,11.9-1.1
	c2.4,0,4.8-0.1,7.2,0.1c9.4,0.8,18.3,3.1,25.6,9.5c4.9,4.3,6.7,9.7,4.9,16.3c-1,4.2-3.2,8-6.3,10.9c-3.1,2.9-6.8,5.1-10.9,6.6
	c-6.6,2.2-13.5,3.3-20.5,3.4c-4.4,0.1-8.7-0.2-13-0.9c-2.6-0.4-5.1-0.7-7.7-1.1c-10.8-1.7-21.3-5-31.1-9.9c-2.1-1-4-2.4-6-3.4
	C177.4,335.4,177.5,334.3,176.9,333.3z"/>
<path class="st0" d="M148.9,148.6c-1.4,0.1-1.9,1-2.7,1.6c-2.5,2.3-5.5,4.1-8.7,5.4c-1.9,0.6-4,0.9-6,0.8c-2.1,0-4-1.3-4.8-3.2
	c-0.9-1.9-1.1-4-0.6-6c0.6-2.1,0.8-4.4,1.8-6.4c0.3-0.6,0.3-1.2,0-1.8c-1.5,0.2-3,0.4-4.4,0.9c-6.1,1.2-12.4,1.4-18.6,0.8
	c-5.3-0.4-10.6-1.9-14.4-6.3c-0.9-0.9-1.5-1.9-2-3c-0.4-1.1-1-2.2-1.8-3.1c-1.4-1.8-1.4-3,0-4.8c0.8-1.3,2-2.2,3.4-2.8
	c0.4-0.4,1-0.4,1.4,0c0.4,0.4,0.4,1,0,1.4l0,0c-0.5,1.2-1,2.4-1.4,3.6c-0.8,2.3-0.5,3,1.6,4c3.4,1.6,7,2.6,10.6,3.1
	c5.9,1,12,1.4,18,1.3c3.1-0.1,6.1-0.9,9.1-1.1c1.8-0.1,2.8-1.7,3.6-3.2c1.4-2.8,3.4-5.1,6-6.8c0.5-0.3,0.9-0.6,1.4-0.8
	c1.1-0.6,2.5-0.4,3.4,0.5c1,0.9,1.4,2.3,1,3.5c-0.5,1.6-1.4,3-2.5,4.3c-0.9,1.1-1.9,2.1-3,2.9c-1.9,1.2-2.7,3-3.4,4.9
	c-1.2,3.2-2,6.6-2.3,10c-0.2,2.5,0.9,3.5,3.4,2.7c3-1.1,5.6-2.9,7.8-5.2c5.4-5,9.9-10.8,13.5-17.3c0.8-1.7,1.5-3.4,2-5.2
	c1-2.7,5.8-4.3,7.9-2.7c1.7,1.3,2,2.6,1.1,5.2c-1.6,4.1-3.4,8.1-5.4,11.9c-3.8,7.7-8.3,15.1-13.4,22.1c-1.3,1.8-2.8,3.5-4.3,5.1
	c-0.8,0.9-0.6,1.5,0.3,2c0.6,0.3,1.1,0.6,1.7,0.9c4.4,1.8,8.9,3.2,13.5,4.1c2.7,0.6,5.4,0,8,0.1c3.7,0.3,7.4,0,11-1
	c1.3-0.4,2.5-0.8,2.7-2.4c0.1-1.4,1.1-2.5,2.5-2.6c1.5-0.1,2.4,1,3.1,2.1c0.8,1.1,0.7,2.6-0.1,3.7c-1.3,1.7-3.2,2.9-5.3,3.3
	c-6,1.5-11.9,1-18,0.5c-5.7-0.6-11.3-2.1-16.6-4.5c-1.4-0.6-2.8-1.4-4.2-2.1c-0.9-0.6-2.2-0.5-3,0.3c-1.1,1.1-2.4,2.1-3.6,3
	c-4.8,3.4-9.9,5-15.7,2.9c-1.8-0.7-3.5-1.7-5-3c-3.2-2.7-2.7-8.3-0.3-10.8c3.2-3.3,6.7-4.6,11.3-3.1c2.8,0.9,5.5,2.1,8.2,3.4
	c2,1,2.5,0.9,3.8-0.7c2.9-3.6,5.3-7.6,7.9-11.4C148.9,149.3,148.9,149.1,148.9,148.6z M125.4,160.3c-1.2,0-2.5,0.2-3.6,0.6
	c-3.3,1.2-4.9,6.4-2.7,9.1c1.9,2.3,7.4,4.4,11.1,1.7c2.2-1.7,4.3-3.5,6.1-5.6c1.1-1.2,1.1-1.8-0.3-2.6
	C132.8,161.7,129.1,160.5,125.4,160.3L125.4,160.3z"/>
<path class="st0" d="M206.7,157c-0.9,0.5-1.7,1.2-2.2,2.1c-0.8,1-1.8,1.9-2.9,2.5c-3.7,2.3-6.9,1-8.1-3.2c-0.1-0.5-0.3-1.1-0.4-1.6
	c-0.9,0-1.2,0.8-1.7,1.3c-0.2,0.2-0.4,0.4-0.5,0.7c-3.2,4.2-7.8,5.4-10.5-1.1c-0.1-0.2-0.3-0.4-0.4-0.5c-0.9,0.8-1.7,1.7-2.4,2.6
	c-0.9,1.1-2,1.9-3.3,2.4c-3.7,1.4-6.9-0.6-7.2-4.7c-0.3-3.9,0.9-7.8,3.3-10.9c1.4-2.1,3-4,5-5.6c3-2.2,5.6-2.6,8-0.3
	c1,0.9,1.5,0.5,2.3-0.4c2.2-2.4,3.7-2.2,5.5,0.6c0.8,1,0.9,2.5,0.3,3.6c-1.5,3.1-3.4,6-4.3,9.3c-0.5,1.5-0.8,3.1-0.9,4.7
	c1.2,0.1,2.3-0.5,2.9-1.5c2.1-2.6,4.1-5.3,5.8-8.2c1.9-3.2,4.4-6,7.4-8.2c3.1-2.4,5-2,7.6-0.1c0.4,0.3,0.6,0.7,1.2,0.7
	c0.7-0.2,0.8-0.9,1.2-1.4c1.6-1.8,4-1.6,5,0.5c1,1.6,1,3.6,0.1,5.3c-2.1,3.5-3.7,7.3-4.6,11.3c-0.1,0.5-0.5,1.1,0.1,1.5
	s1.3,0,1.7-0.5c1.5-1.5,2.9-3.1,4.1-4.9c1-1.5,1.9-3,2.9-4.5c0.3-0.5,0.5-1.2,1.2-1.4c0.5-0.1,1.1-0.6,1.5,0
	c0.3,0.4,0.2,0.9-0.1,1.3c-2.7,4.3-4.9,9-9,12.2c-3.2,2.4-6.3,1.5-7.8-2.1C207.2,158.1,207.3,157.5,206.7,157z M200.1,156.9
	c0,1.1,0.1,1.5,0.5,1.7c0.6,0.2,1-0.3,1.4-0.6c2.8-2.3,4.9-5.3,6.2-8.7c0.6-1,1-2.2,1.2-3.4c0-0.6,0.1-1.4-0.5-1.8
	c-0.8-0.5-1.4,0.2-1.9,0.6c-2.5,2.3-4.5,5.2-5.7,8.4C200.9,154.5,199.9,155.7,200.1,156.9L200.1,156.9z M182.7,146.4
	c0-1.6-0.1-2.1-0.5-2.3c-0.8-0.3-1.2,0.3-1.6,0.8c-3.5,3.1-5.4,7.2-6.9,11.5c-0.3,0.7-0.4,1.5,0.3,2s1.4-0.1,1.9-0.6
	c1.9-1.7,3.5-3.8,4.8-6.1C181.6,150.1,182.3,148.3,182.7,146.4L182.7,146.4z"/>
<path class="st0" d="M314.3,325.5c-0.1-3,0.2-5.7-1-8.3c-0.9-1.9,0.5-3.6,1.4-5.2c0.4-0.8,1.9-0.4,2.4,0.7c1.2,2.2,1.6,4.8,1.3,7.3
	c-0.2,2-0.3,4.1-0.2,6.1c0,1,0.2,2.1,0.7,3c0.3,1.1,1.4,1.8,2.6,1.7c1.5,0,3,0,4.5-0.1c2-0.1,3.5-1,4-3.2c0.2-1,0.3-2.5,1.8-2.4
	c1.6,0.1,1.1,1.7,1.2,2.7c0.2,2.8,1.7,3.8,4.2,2.3c2.3-1.4,4.5-2.9,6.7-4.5c1.9-1.6,3.9-2.9,6.1-3.9c3.5-1.4,6.3-0.3,7.9,3.2
	c0.6,1.4,0.9,2.9,0.8,4.3c-0.1,1.4,0.5,1.7,1.8,1.7c2.8,0,5-0.8,6.3-3.5c0.8-1.5,1.9-2.7,3.3-3.7c1.9-1.3,3.4-1.3,4.8,0.5
	c1.3,1.8,2.2,3.9,2.5,6.1c0.2,1.8,0.2,3.5,0.1,5.3c0,1.9-0.5,2.2-2.3,2.3s-3.8-0.8-5.6-1.4c-1.6-0.5-2.8-0.6-4.1,0.5
	c-1.1,0.8-2.4,1.1-3.7,1c-8.6,0-17.3,0-25.9,0c-1.5,0.1-3-0.5-4.1-1.5c-0.7-0.6-1.3-0.7-1.9-0.1c-1.5,1.6-3.4,1.6-5.4,1.6
	c-1.6,0-3.1,0-4.7-0.2c-2.4-0.2-3.6-1.4-4.3-3.7C314.4,331.4,314.1,328.4,314.3,325.5z M344.5,330.9c1.9,0,3.3,0.1,4.7,0
	c1.3,0,2.6-0.2,3.8-0.7c0.8-0.4,0.9-0.9,0.1-1.4c-0.7-0.6-1.7-0.8-2.6-0.7C348.3,328.4,346.2,329.4,344.5,330.9z"/>
<path class="st0" d="M186.9,237.9c-0.7-0.1-0.7-0.7-0.9-1.3c-0.6-2.2-1.4-4.4-2.2-6.6c-3-6.5-7.5-11.4-14.5-13.7
	c-1.4-0.5-1.5-1.2-0.5-2.3c0.5-0.5,1.2-0.8,1.9-1c6-2.3,9.5-6.9,11.8-12.5c0.8-1.8,1.3-3.7,1.3-5.7c0-0.9,0.3-1.9,1.6-1.9
	s1.3,0.9,1.5,1.7c0.7,3.9,2.3,7.5,4.7,10.5c2.5,3.4,5.9,5.9,9.8,7.4c0.5,0.2,1,0.4,1.5,0.7c1.3,0.8,1.3,1.3-0.1,2.1
	c-1.8,1-3.5,2.1-5.2,3.3c-5.8,4.3-8.7,10.2-9.7,17.2c0,0.5-0.1,0.9-0.2,1.4C187.7,237.7,187.3,238,186.9,237.9z"/>
<path class="st0" d="M565.1,165.4c-0.3,0.8-1,1.4-1.7,1.7c-2.1,1.2-4,2.6-5.8,4.2c-4.1,3.4-6.3,7.7-7.5,12.6
	c-0.3,1.2-0.5,2.4-0.8,3.5c-0.2,0.6-0.5,1.3-1.3,1.3s-0.7-0.7-0.8-1.3c-0.4-2.7-1.7-5.1-2.8-7.5c-2.3-4.9-6.2-8.9-11-11.3
	c-0.9-0.5-1.9-0.8-2.8-1.1c-1.2-0.3-1.3-1.1-0.5-2.1c0.4-0.4,0.9-0.6,1.5-0.8c7.8-3,11.9-9,13.5-17c0.1-1.1,0.4-2.2,1-3.1
	c0.2-0.4,0.7-0.6,1.2-0.6c0.6,0.1,0.6,0.6,0.7,1.1c0.7,3.8,2.3,7.4,4.5,10.6c2.2,3.6,5.6,6.3,9.5,7.8c0.9,0.3,1.7,0.7,2.6,1
	C564.8,164.5,565.2,164.7,565.1,165.4z"/>
<path class="st0" d="M481.8,331c-1.3-1.8-3.2-3-5.4-3.3c-0.6-0.1-1.3-0.1-1.9-0.2c-1.6-0.3-2-1.2-1.3-2.6c1.3-2.6,4.2-3.9,7-3.2
	c1.7,0.5,3.2,1.4,4.5,2.7c2.4,2.3,4.5,5,7.4,6.7c1.6,0.9,2,4.8,1,6.4c-0.3,0.4-0.7,0.6-1.2,0.6c-0.9,0-1.9,0.1-2.8,0.1
	c-11.1,0-22.3-0.1-33.4,0.1c-4.9,0.1-7.7-1.2-7.8-7.9c0-2.2,0-4.5,0-6.7c0.2-2-0.2-3.9-1.2-5.6c-0.7-1.1,0.4-5.5,1.6-6.4
	c0.9-0.7,1.4-0.1,1.8,0.6c1.1,1.8,1.7,3.9,1.8,6.1c0.1,3,0,5.9,0.1,8.9c0.1,3.2,0.6,3.7,3.8,3.8c2.9,0.1,5.7,0.1,8.6,0.1
	c1.2,0,1.7-0.6,0.8-1.5c-1.6-1.8-0.7-3.7-0.3-5.5c0.1-0.8,0.7-1.3,1.5-1.4c1-0.2,1.4,0.5,1.7,1.1c0.8,1.7,1.4,3.4,1.7,5.3
	c0.3,2.1,0.3,2.1,2.4,2.1C475.1,331,478.2,331,481.8,331z"/>
<path class="st0" d="M532.6,334.3c-0.1,0.4-0.1,1-0.2,1.5c-0.4,1.9-0.8,2.1-2.7,2c-1.9-0.2-3.8-0.6-5.7-1.4
	c-1.1-0.5-2.4-0.4-3.4,0.4c-1.4,0.9-3,1.3-4.7,1.3c-1.2-0.1-2.4,0.6-2.9,1.7c-1.2,2.7-3.5,4.5-5.6,6.5c-1.3,1.2-3.2,1.7-4.9,1.2
	c-3-0.7-5.3-2.6-7.9-4c-0.7-0.4-1-1.3-0.6-2c0-0.1,0.1-0.1,0.1-0.1c0.4-0.7,1.1-0.5,1.8-0.3c0.2,0,0.4,0.1,0.5,0.2
	c2,1,4,2.1,6.3,0.8c3-1.6,5.7-3.5,7.4-6.5c0.8-1.2,0.5-2.8-0.6-3.8c-2-2.2-1.4-4.7-0.5-7.1c0.5-1.3,1.4-1.4,2.2-0.2
	c1,1.4,1.7,2.9,2.1,4.5c0.3,1.5,1.2,1.9,2.6,2c2.4,0.1,4.4-0.4,5.5-2.9c0.9-1.8,2.2-3.3,3.8-4.4c1.7-1.2,3-1.2,4.3,0.4
	c1.6,1.8,2.7,4.1,2.8,6.5C532.3,331.7,532.5,332.9,532.6,334.3z"/>
<path class="st0" d="M424.8,21.3c0,0.7-0.5,0.9-0.9,1.3c-1.6,1.1-3.1,2.3-4.7,3.5c-1.9,1.4-2.1,1.6-1.4,3.7s0.6,4.1,1.8,5.8
	c0.5,0.6,0.4,1.5-0.2,1.9c0,0-0.1,0.1-0.1,0.1c-0.7,0.5-1.2,0-1.7-0.4c-1.6-1.1-3.2-2.3-4.7-3.4s-2.8-1.2-4.2,0.1
	c-1.3,1.2-3,1.8-4.2,3.2c-0.3,0.3-0.6,0.5-0.9,0.6c-0.4,0.4-1.1,0.4-1.6,0.1c-0.5-0.4-0.3-0.9-0.1-1.5c0.8-2.4,1.4-4.8,2.2-7.1
	c0.5-0.8,0.2-1.9-0.7-2.4c-1.7-1.3-3.4-2.6-5.1-3.9c-0.6-0.4-1.3-0.9-1-1.8c0.3-1.1,1.2-0.9,2-0.9c1.8,0.1,3.5,0.1,5.3,0
	c2.1-0.1,2.6-0.5,3.1-2.5c0.4-1.6,1.3-3.1,1.5-4.8c0-0.6,0.3-1.1,0.7-1.5c0.9-0.9,1.9-0.6,2.2,0.6c0.5,2,1.1,3.9,1.8,5.8
	c0.6,1.6,1.4,2.4,3.3,2.3s3.9,0.1,5.8,0C423.9,20,424.6,20.3,424.8,21.3z"/>
<path class="st0" d="M424,338c-2.1,0-4.3,0-6.4,0c-3.1-0.1-4.5-1.3-5.3-4.3c-0.5-2.4-0.8-4.8-0.7-7.2c0-3.2,0.4-6.5-1.3-9.5
	c-0.5-0.9,0.7-4.6,1.5-5.1s1.7-0.6,2.1,0.4c0.7,1.2,1.1,2.5,1.4,3.9c0.3,2.7,0.4,5.4,0.3,8c0,0.6,0,1.3,0,2c0.3,4,0.9,4.6,4.8,4.7
	c2.5-0.1,5,0,7.5,0.2c1.6,0.2,2.1-0.5,1.1-1.7c-1.7-2.1-1-3.9-0.1-5.9c0.6-1.3,1.6-1.5,2.5-0.4c0.8,0.8,1.2,1.9,1.4,3
	c0.5,3.1,0.6,6.3,0.5,9.4c-0.1,2-0.5,2.4-2.5,2.5C428.6,338.1,426.3,338,424,338z"/>
<path class="st0" d="M312.6,334.5c-0.1,2,0.2,4.3-0.7,6.6c-1,3.1-3.8,5.2-7,5.6c-2.7,0.5-5.5,0.6-8.3,0.3c-6.8-0.9-9.1-5.9-7.6-11
	c0.9-2.9,2.2-5.7,3.9-8.3c0.5-0.9,1.2-1.5,2.3-0.9s0.5,1.4,0.1,2.2c-0.7,1.2-1.4,2.4-2,3.7c-1.8,3.8-0.5,6.6,3.5,7.6
	c3.4,1,7.1,0.6,10.3-1c1.9-1,2.4-1.9,2-4.1c-0.2-1.3-0.7-2.5-1.4-3.6c-0.9-1.7-0.3-5.8,1-7.1c0.8-0.8,1.5-0.6,2,0.3
	c1,1.8,1.7,3.7,1.9,5.8C312.6,331.8,312.6,333,312.6,334.5z"/>
<path class="st0" d="M397.5,333.8c-0.4,2.4,0.3,4.9-1.2,7.1c-1.5,2.3-3.4,4.2-5.6,5.7c-2,1.4-4.1,1-6.1,0.3s-4-2.3-6-3.5
	c-0.7-0.3-1-1.2-0.7-2c0-0.1,0.1-0.1,0.1-0.2c0.5-0.8,1.3-0.5,2-0.2c0.2,0,0.4,0.1,0.5,0.2c3.4,2.4,6.3,1,9.1-1.1
	c1.3-1,2.4-2.1,3.4-3.3c1.6-2.1,1.8-3,0.3-5.2c-1.1-1.7-1.4-3.9-0.8-5.9c0.2-0.9,0.6-1.6,1.6-1.7s1.2,0.8,1.6,1.4
	C397.5,327.9,397.5,330.9,397.5,333.8z"/>
<path class="st0" d="M201.2,188.5c1.1,0.5,1.1,1.2,1.3,1.6c0.9,2.3,2.6,4.1,4.8,5.2c1.6,0.7,1.6,1.2,0.4,2.4c-0.5,0.4-1,0.9-1.5,1.3
	c-1.4,1.3-2.6,2.6-2.9,4.6c0,0.7-0.3,1.3-0.9,1.6c-0.8,0.4-1.6,0.5-1.8-0.5c-0.5-2.9-2.5-5.3-5.2-6.4c-0.7-0.2-1.1-1-0.9-1.7
	c0.1-0.3,0.3-0.6,0.6-0.8c2.8-1.3,4.2-3.8,5.4-6.4C200.8,189.1,201,188.8,201.2,188.5z"/>
<path class="st0" d="M563.1,156.5c-0.6,0.1-1.1-0.3-1.3-0.8c-0.5-2.9-2.5-5.3-5.2-6.4c-0.6-0.2-0.8-0.9-0.6-1.4
	c0.1-0.3,0.3-0.5,0.6-0.6c3.1-1.4,4.4-4,5.2-7.1c0.3-0.9,1-0.9,1.6-0.1c0.3,0.4,0.5,0.8,0.6,1.2c0.6,2.5,2.4,3.9,4.4,5.1
	c1.4,0.8,1.6,1.9,0.4,2.8c-2.2,1.4-3.7,3.7-4.3,6.2C564.5,156.1,563.9,156.6,563.1,156.5C563.2,156.5,563.2,156.5,563.1,156.5z"/>
<path class="st0" d="M166.4,218.8c0.6,0,1.1,0.4,1.3,0.9c0.5,1.7,1.8,3.1,3.4,3.8c0.7,0.2,1.1,1,0.8,1.7c-0.1,0.3-0.4,0.6-0.7,0.8
	c-1.7,1-2.9,2.6-3.6,4.5c-0.3,0.9-1,0.8-1.5,0.2c-1.4-1.6-2.5-3.4-4.2-4.8c-0.6-0.6-0.5-1.5,0.1-2.1c0.1-0.1,0.1-0.1,0.2-0.2
	c1.4-1.2,3-2.3,3.3-4.3C165.6,218.9,165.9,218.8,166.4,218.8z"/>
<path class="st0" d="M532.9,176c0.1,0.5-0.1,0.9-0.5,1.2c-1.8,1-2.6,2.8-3.4,4.6c-0.2,0.3-0.3,0.7-0.7,0.8c-0.6,0.1-0.8-0.4-1-0.8
	c-0.6-1.7-1.8-3.1-3.2-4.1c-1.2-1-1.4-1.9-0.3-2.7c1.2-1,2.2-2.3,2.8-3.8c0.2-0.4,0.5-0.8,0.9-1c0.5-0.4,1.1-0.5,1.3,0.3
	c0.5,1.9,1.8,3.5,3.6,4.3C532.8,175,533,175.5,532.9,176z"/>
<path class="st0" d="M429.1,345.5c-1.2-0.9-1.8-0.2-2.5,1c-0.9,1.4-1.9,1.3-3.8,0.1c-1.5-0.9-1.8-1.6-1-3.2c0.5-0.9,0.9-2.4,1.7-2.4
	c2.2,0.1,3.7-0.8,5.5-1.9c1.1-0.7,2.6,0.6,3.6,1.6s0,2.1-0.5,3C431.5,345,430.3,345.7,429.1,345.5z"/>
<path class="st0" d="M304.8,320.1c0,1.8-1.8,4.4-3.2,4.4c-1.6,0-4.6-2.2-4.6-3.4s2.1-4.2,2.9-4.3
	C301.7,316.6,304.7,318.7,304.8,320.1z"/>
<path class="st0" d="M347.1,315.1c-0.6,1.3-1,2.8-2.2,3.9c-0.3,0.3-0.9,0.4-1.3,0.2c-1.3-0.6-2.6-1.3-3.9-2
	c-0.2-0.2-0.4-0.4-0.5-0.6c-0.5-1.3,2.1-5,3.6-4.8c1.5,0.3,2.8,0.9,3.9,1.9C347,313.9,347.1,314.4,347.1,315.1z"/>
<path class="st0" d="M463.6,346.7c-2.1,0-4.4-1.9-4.3-3.5s2-4,3.2-4c1.7,0,4.6,2.2,4.5,3.5C467,344.5,465,346.8,463.6,346.7z"/>
<path class="st0" d="M232.6,158.9c1.1,0,2.2,0.7,2.7,1.7c0.4,0.9-0.2,1.6-0.8,2.1c-0.7,0.8-1.4,1.7-1.9,2.7c-0.5,0.8-1,1.7-2.1,1.4
	c-1.1-0.3-1.9-1.3-1.8-2.5c0.4-1.9,1.3-3.6,2.7-5C231.7,158.9,232.2,158.8,232.6,158.9z"/>
<path class="st0" d="M218.9,164.3c0.1-1.9,1-3.7,2.5-4.9c1.1-0.8,2.6-0.6,3.5,0.4c1,1,0.6,2-0.2,3s-1.5,1.7-2.1,2.6
	s-1.1,1.8-2.4,1.4S219.1,165.2,218.9,164.3z"/>
<path class="st0" d="M238.4,163.8c0.5-1.8,1.5-3.5,2.9-4.7c0.9-0.8,2.5-0.3,3.5,0.7s0.2,1.7-0.3,2.4c-1,1.1-1.9,2.3-2.7,3.5
	c-0.4,0.6-0.8,1.3-1.7,1c-0.7-0.2-1.3-0.8-1.4-1.6C238.6,164.7,238.5,164.4,238.4,163.8z"/>
</svg>
